<?xml version="1.0" encoding="utf-8"?>
<!-- Generator: Adobe Illustrator 19.0.0, SVG Export Plug-In . SVG Version: 6.00 Build 0)  -->
<svg version="1.1" id="Layer_1" xmlns="http://www.w3.org/2000/svg" xmlns:xlink="http://www.w3.org/1999/xlink" x="0px" y="0px"
	 viewBox="0 0 181.9 52.1" style="enable-background:new 0 0 181.9 52.1;" xml:space="preserve">
<style type="text/css">
	.st0{fill:#F1603B;stroke:#FFFFFF;stroke-width:5;stroke-miterlimit:10;}
</style>
<g>
	<path class="st0" d="M50.3,21.8c-0.4-1.2-1-2.3-1.7-3.3c-0.3-0.8-0.6-1.6-0.9-2.3c-0.3-0.6-0.6-1.2-0.9-1.8c-1.3-2.3-3-4.4-5.1-6.1
		C31.8-0.2,17,1,8.5,10.8C0.1,20.7,1.2,35.5,11.1,44c9.8,8.4,24.7,7.3,33.1-2.6c1-1.2,1.9-2.5,2.7-3.9c0,0,0,0,0,0
		c1.3-1.3,2.3-2.8,3-4.4c0.7-1.7,1.2-3.6,1.3-5.6C51.3,25.5,51,23.6,50.3,21.8z"/>
	<path class="st0" d="M174.7,23.7c-0.1,0-0.3,0-0.4,0c0,0,0,0,0,0c-44.7,0.1-75.1-0.2-118.8-0.1c-1.2,0-2.4,0-3.6,0
		c-0.3,2.3-0.9,4.5-1.8,6.6l-1.2,2.8c43.3,0,78.7,0.2,125.6,0.1c1.2,0,2.4-0.5,3.3-1.4c1.8-1.9,1.8-4.8-0.1-6.6
		C176.9,24.2,175.8,23.8,174.7,23.7z"/>
</g>
<g id="XMLID_105_">
</g>
<g id="XMLID_106_">
</g>
<g id="XMLID_107_">
</g>
<g id="XMLID_108_">
</g>
<g id="XMLID_109_">
</g>
<g id="XMLID_110_">
</g>
</svg>
